<?xml version="1.0" encoding="utf-8"?>
<!-- Generator: Adobe Illustrator 22.0.1, SVG Export Plug-In . SVG Version: 6.00 Build 0)  -->
<svg version="1.1" id="Layer_1" xmlns="http://www.w3.org/2000/svg" xmlns:xlink="http://www.w3.org/1999/xlink" x="0px" y="0px"
	 viewBox="0 0 560 960" style="enable-background:new 0 0 560 960;" xml:space="preserve">
<style type="text/css">
	.st0{fill:none;}
	.st1{fill:none;stroke:#FE6A16;stroke-miterlimit:10;}
	.st2{fill:none;stroke:#3CF0D8;stroke-miterlimit:10;}
	.st3{fill:#3CF0D8;}
	.st4{opacity:0.28;fill:url(#SVGID_1_);}
</style>
<pattern  y="960" width="312" height="274.9" patternUnits="userSpaceOnUse" id="New_Pattern" viewBox="5.5 -274.9 312 274.9" style="overflow:visible;">
	<g>
		<rect x="5.5" y="-274.9" class="st0" width="312" height="274.9"/>
		<g>
			<rect x="247.2" y="-19.8" class="st1" width="9.3" height="2.3"/>
			<rect x="263.7" y="-19.8" class="st1" width="9.3" height="2.3"/>
			<rect x="280.2" y="-19.8" class="st2" width="9.3" height="2.3"/>
			<rect x="296.7" y="-19.8" class="st2" width="9.3" height="2.3"/>
			<rect x="313.2" y="-19.8" class="st2" width="9.3" height="2.3"/>
			<rect x="296" y="-5.8" class="st1" width="9.3" height="2.3"/>
			<rect x="312.5" y="-5.8" class="st1" width="9.3" height="2.3"/>
		</g>
		<g>
			<rect x="1.2" y="-19.8" class="st2" width="9.3" height="2.3"/>
			<rect x="17.8" y="-19.8" class="st1" width="9.3" height="2.3"/>
			<rect x="34.2" y="-19.8" class="st1" width="9.3" height="2.3"/>
			<rect x="0.5" y="-5.8" class="st1" width="9.3" height="2.3"/>
			<rect x="17" y="-5.8" class="st1" width="9.3" height="2.3"/>
			<rect x="33.5" y="-5.8" class="st1" width="9.3" height="2.3"/>
			<rect x="50" y="-5.8" class="st1" width="9.3" height="2.3"/>
			<rect x="66.5" y="-5.8" class="st1" width="9.3" height="2.3"/>
		</g>
		<g>
			<rect x="247.2" y="-74.8" class="st1" width="9.3" height="2.3"/>
			<rect x="263.7" y="-74.8" class="st1" width="9.3" height="2.3"/>
			<rect x="280.2" y="-74.8" class="st2" width="9.3" height="2.3"/>
			<rect x="296.7" y="-74.8" class="st2" width="9.3" height="2.3"/>
			<rect x="313.2" y="-74.8" class="st2" width="9.3" height="2.3"/>
			<rect x="296" y="-60.8" class="st1" width="9.3" height="2.3"/>
			<rect x="312.5" y="-60.8" class="st1" width="9.3" height="2.3"/>
			<rect x="296" y="-46.5" class="st1" width="9.3" height="2.3"/>
			<rect x="312.5" y="-46.5" class="st3" width="9.3" height="2.3"/>
			<rect x="296" y="-37.5" class="st1" width="9.3" height="2.3"/>
			<rect x="312.5" y="-37.5" class="st1" width="9.3" height="2.3"/>
		</g>
		<g>
			<rect x="91.2" y="-47.3" class="st1" width="9.3" height="2.3"/>
			<rect x="107.7" y="-47.3" class="st1" width="9.3" height="2.3"/>
			<rect x="124.2" y="-47.3" class="st2" width="9.3" height="2.3"/>
			<rect x="140.7" y="-47.3" class="st2" width="9.3" height="2.3"/>
			<rect x="157.2" y="-47.3" class="st2" width="9.3" height="2.3"/>
			<rect x="173.7" y="-47.3" class="st1" width="9.3" height="2.3"/>
			<rect x="190.2" y="-47.3" class="st1" width="9.3" height="2.3"/>
			<rect x="140" y="-33.3" class="st1" width="9.3" height="2.3"/>
			<rect x="156.5" y="-33.3" class="st1" width="9.3" height="2.3"/>
			<rect x="173" y="-33.3" class="st1" width="9.3" height="2.3"/>
			<rect x="189.5" y="-33.3" class="st1" width="9.3" height="2.3"/>
			<rect x="206" y="-33.3" class="st1" width="9.3" height="2.3"/>
			<rect x="222.5" y="-33.3" class="st1" width="9.3" height="2.3"/>
			<rect x="140" y="-19" class="st1" width="9.3" height="2.3"/>
			<rect x="156.5" y="-19" class="st3" width="9.3" height="2.3"/>
			<rect x="173" y="-19" class="st3" width="9.3" height="2.3"/>
			<rect x="189.5" y="-19" class="st1" width="9.3" height="2.3"/>
			<rect x="206" y="-19" class="st2" width="9.3" height="2.3"/>
			<rect x="222.5" y="-19" class="st3" width="9.3" height="2.3"/>
			<rect x="140" y="-10" class="st1" width="9.3" height="2.3"/>
			<rect x="156.5" y="-10" class="st1" width="9.3" height="2.3"/>
			<rect x="173" y="-10" class="st1" width="9.3" height="2.3"/>
			<rect x="189.5" y="-10" class="st3" width="9.3" height="2.3"/>
			<rect x="206" y="-10" class="st3" width="9.3" height="2.3"/>
			<rect x="222.5" y="-10" class="st3" width="9.3" height="2.3"/>
		</g>
		<g>
			<rect x="1.2" y="-74.8" class="st2" width="9.3" height="2.3"/>
			<rect x="17.8" y="-74.8" class="st1" width="9.3" height="2.3"/>
			<rect x="34.2" y="-74.8" class="st1" width="9.3" height="2.3"/>
			<rect x="0.5" y="-60.8" class="st1" width="9.3" height="2.3"/>
			<rect x="17" y="-60.8" class="st1" width="9.3" height="2.3"/>
			<rect x="33.5" y="-60.8" class="st1" width="9.3" height="2.3"/>
			<rect x="50" y="-60.8" class="st1" width="9.3" height="2.3"/>
			<rect x="66.5" y="-60.8" class="st1" width="9.3" height="2.3"/>
			<rect x="0.5" y="-46.5" class="st3" width="9.3" height="2.3"/>
			<rect x="17" y="-46.5" class="st3" width="9.3" height="2.3"/>
			<rect x="33.5" y="-46.5" class="st1" width="9.3" height="2.3"/>
			<rect x="50" y="-46.5" class="st2" width="9.3" height="2.3"/>
			<rect x="66.5" y="-46.5" class="st3" width="9.3" height="2.3"/>
			<rect x="0.5" y="-37.5" class="st1" width="9.3" height="2.3"/>
			<rect x="17" y="-37.5" class="st1" width="9.3" height="2.3"/>
			<rect x="33.5" y="-37.5" class="st3" width="9.3" height="2.3"/>
			<rect x="50" y="-37.5" class="st3" width="9.3" height="2.3"/>
			<rect x="66.5" y="-37.5" class="st3" width="9.3" height="2.3"/>
		</g>
		<g>
			<rect x="247.2" y="-129.8" class="st1" width="9.3" height="2.3"/>
			<rect x="263.7" y="-129.8" class="st1" width="9.3" height="2.3"/>
			<rect x="280.2" y="-129.8" class="st2" width="9.3" height="2.3"/>
			<rect x="296.7" y="-129.8" class="st2" width="9.3" height="2.3"/>
			<rect x="313.2" y="-129.8" class="st2" width="9.3" height="2.3"/>
			<rect x="296" y="-115.8" class="st1" width="9.3" height="2.3"/>
			<rect x="312.5" y="-115.8" class="st1" width="9.3" height="2.3"/>
			<rect x="296" y="-101.5" class="st1" width="9.3" height="2.3"/>
			<rect x="312.5" y="-101.5" class="st3" width="9.3" height="2.3"/>
			<rect x="296" y="-92.5" class="st1" width="9.3" height="2.3"/>
			<rect x="312.5" y="-92.5" class="st1" width="9.3" height="2.3"/>
		</g>
		<g>
			<rect x="91.2" y="-102.3" class="st1" width="9.3" height="2.3"/>
			<rect x="107.7" y="-102.3" class="st1" width="9.3" height="2.3"/>
			<rect x="124.2" y="-102.3" class="st2" width="9.3" height="2.3"/>
			<rect x="140.7" y="-102.3" class="st2" width="9.3" height="2.3"/>
			<rect x="157.2" y="-102.3" class="st2" width="9.3" height="2.3"/>
			<rect x="173.7" y="-102.3" class="st1" width="9.3" height="2.3"/>
			<rect x="190.2" y="-102.3" class="st1" width="9.3" height="2.3"/>
			<rect x="140" y="-88.3" class="st1" width="9.3" height="2.3"/>
			<rect x="156.5" y="-88.3" class="st1" width="9.3" height="2.3"/>
			<rect x="173" y="-88.3" class="st1" width="9.3" height="2.3"/>
			<rect x="189.5" y="-88.3" class="st1" width="9.3" height="2.3"/>
			<rect x="206" y="-88.3" class="st1" width="9.3" height="2.3"/>
			<rect x="222.5" y="-88.3" class="st1" width="9.3" height="2.3"/>
			<rect x="140" y="-74" class="st1" width="9.3" height="2.3"/>
			<rect x="156.5" y="-74" class="st3" width="9.3" height="2.3"/>
			<rect x="173" y="-74" class="st3" width="9.3" height="2.3"/>
			<rect x="189.5" y="-74" class="st1" width="9.3" height="2.3"/>
			<rect x="206" y="-74" class="st2" width="9.3" height="2.3"/>
			<rect x="222.5" y="-74" class="st3" width="9.3" height="2.3"/>
			<rect x="140" y="-65" class="st1" width="9.3" height="2.3"/>
			<rect x="156.5" y="-65" class="st1" width="9.3" height="2.3"/>
			<rect x="173" y="-65" class="st1" width="9.3" height="2.3"/>
			<rect x="189.5" y="-65" class="st3" width="9.3" height="2.3"/>
			<rect x="206" y="-65" class="st3" width="9.3" height="2.3"/>
			<rect x="222.5" y="-65" class="st3" width="9.3" height="2.3"/>
		</g>
		<g>
			<rect x="1.2" y="-129.8" class="st2" width="9.3" height="2.3"/>
			<rect x="17.8" y="-129.8" class="st1" width="9.3" height="2.3"/>
			<rect x="34.2" y="-129.8" class="st1" width="9.3" height="2.3"/>
			<rect x="0.5" y="-115.8" class="st1" width="9.3" height="2.3"/>
			<rect x="17" y="-115.8" class="st1" width="9.3" height="2.3"/>
			<rect x="33.5" y="-115.8" class="st1" width="9.3" height="2.3"/>
			<rect x="50" y="-115.8" class="st1" width="9.3" height="2.3"/>
			<rect x="66.5" y="-115.8" class="st1" width="9.3" height="2.3"/>
			<rect x="0.5" y="-101.5" class="st3" width="9.3" height="2.3"/>
			<rect x="17" y="-101.5" class="st3" width="9.3" height="2.3"/>
			<rect x="33.5" y="-101.5" class="st1" width="9.3" height="2.3"/>
			<rect x="50" y="-101.5" class="st2" width="9.3" height="2.3"/>
			<rect x="66.5" y="-101.5" class="st3" width="9.3" height="2.3"/>
			<rect x="0.5" y="-92.5" class="st1" width="9.3" height="2.3"/>
			<rect x="17" y="-92.5" class="st1" width="9.3" height="2.3"/>
			<rect x="33.5" y="-92.5" class="st3" width="9.3" height="2.3"/>
			<rect x="50" y="-92.5" class="st3" width="9.3" height="2.3"/>
			<rect x="66.5" y="-92.5" class="st3" width="9.3" height="2.3"/>
		</g>
		<g>
			<rect x="247.2" y="-184.7" class="st1" width="9.3" height="2.3"/>
			<rect x="263.7" y="-184.7" class="st1" width="9.3" height="2.3"/>
			<rect x="280.2" y="-184.7" class="st2" width="9.3" height="2.3"/>
			<rect x="296.7" y="-184.7" class="st2" width="9.3" height="2.3"/>
			<rect x="313.2" y="-184.7" class="st2" width="9.3" height="2.3"/>
			<rect x="296" y="-170.7" class="st1" width="9.3" height="2.3"/>
			<rect x="312.5" y="-170.7" class="st1" width="9.3" height="2.3"/>
			<rect x="296" y="-156.5" class="st1" width="9.3" height="2.3"/>
			<rect x="312.5" y="-156.5" class="st3" width="9.3" height="2.3"/>
			<rect x="296" y="-147.5" class="st1" width="9.3" height="2.3"/>
			<rect x="312.5" y="-147.5" class="st1" width="9.3" height="2.3"/>
		</g>
		<g>
			<rect x="91.2" y="-157.2" class="st1" width="9.3" height="2.3"/>
			<rect x="107.7" y="-157.2" class="st1" width="9.3" height="2.3"/>
			<rect x="124.2" y="-157.2" class="st2" width="9.3" height="2.3"/>
			<rect x="140.7" y="-157.2" class="st2" width="9.3" height="2.3"/>
			<rect x="157.2" y="-157.2" class="st2" width="9.3" height="2.3"/>
			<rect x="173.7" y="-157.2" class="st1" width="9.3" height="2.3"/>
			<rect x="190.2" y="-157.2" class="st1" width="9.3" height="2.3"/>
			<rect x="140" y="-143.2" class="st1" width="9.3" height="2.3"/>
			<rect x="156.5" y="-143.2" class="st1" width="9.3" height="2.3"/>
			<rect x="173" y="-143.2" class="st1" width="9.3" height="2.3"/>
			<rect x="189.5" y="-143.2" class="st1" width="9.3" height="2.3"/>
			<rect x="206" y="-143.2" class="st1" width="9.3" height="2.3"/>
			<rect x="222.5" y="-143.2" class="st1" width="9.3" height="2.3"/>
			<rect x="140" y="-129" class="st1" width="9.3" height="2.3"/>
			<rect x="156.5" y="-129" class="st3" width="9.3" height="2.3"/>
			<rect x="173" y="-129" class="st3" width="9.3" height="2.3"/>
			<rect x="189.5" y="-129" class="st1" width="9.3" height="2.3"/>
			<rect x="206" y="-129" class="st2" width="9.3" height="2.3"/>
			<rect x="222.5" y="-129" class="st3" width="9.3" height="2.3"/>
			<rect x="140" y="-120" class="st1" width="9.3" height="2.3"/>
			<rect x="156.5" y="-120" class="st1" width="9.3" height="2.3"/>
			<rect x="173" y="-120" class="st1" width="9.3" height="2.3"/>
			<rect x="189.5" y="-120" class="st3" width="9.3" height="2.3"/>
			<rect x="206" y="-120" class="st3" width="9.3" height="2.3"/>
			<rect x="222.5" y="-120" class="st3" width="9.3" height="2.3"/>
		</g>
		<g>
			<rect x="1.2" y="-184.7" class="st2" width="9.3" height="2.3"/>
			<rect x="17.8" y="-184.7" class="st1" width="9.3" height="2.3"/>
			<rect x="34.2" y="-184.7" class="st1" width="9.3" height="2.3"/>
			<rect x="0.5" y="-170.7" class="st1" width="9.3" height="2.3"/>
			<rect x="17" y="-170.7" class="st1" width="9.3" height="2.3"/>
			<rect x="33.5" y="-170.7" class="st1" width="9.3" height="2.3"/>
			<rect x="50" y="-170.7" class="st1" width="9.3" height="2.3"/>
			<rect x="66.5" y="-170.7" class="st1" width="9.3" height="2.3"/>
			<rect x="0.5" y="-156.5" class="st3" width="9.3" height="2.3"/>
			<rect x="17" y="-156.5" class="st3" width="9.3" height="2.3"/>
			<rect x="33.5" y="-156.5" class="st1" width="9.3" height="2.3"/>
			<rect x="50" y="-156.5" class="st2" width="9.3" height="2.3"/>
			<rect x="66.5" y="-156.5" class="st3" width="9.3" height="2.3"/>
			<rect x="0.5" y="-147.5" class="st1" width="9.3" height="2.3"/>
			<rect x="17" y="-147.5" class="st1" width="9.3" height="2.3"/>
			<rect x="33.5" y="-147.5" class="st3" width="9.3" height="2.3"/>
			<rect x="50" y="-147.5" class="st3" width="9.3" height="2.3"/>
			<rect x="66.5" y="-147.5" class="st3" width="9.3" height="2.3"/>
		</g>
		<g>
			<rect x="247.2" y="-239.7" class="st1" width="9.3" height="2.3"/>
			<rect x="263.7" y="-239.7" class="st1" width="9.3" height="2.3"/>
			<rect x="280.2" y="-239.7" class="st2" width="9.3" height="2.3"/>
			<rect x="296.7" y="-239.7" class="st2" width="9.3" height="2.3"/>
			<rect x="313.2" y="-239.7" class="st2" width="9.3" height="2.3"/>
			<rect x="296" y="-225.7" class="st1" width="9.3" height="2.3"/>
			<rect x="312.5" y="-225.7" class="st1" width="9.3" height="2.3"/>
			<rect x="296" y="-211.5" class="st1" width="9.3" height="2.3"/>
			<rect x="312.5" y="-211.5" class="st3" width="9.3" height="2.3"/>
			<rect x="296" y="-202.5" class="st1" width="9.3" height="2.3"/>
			<rect x="312.5" y="-202.5" class="st1" width="9.3" height="2.3"/>
		</g>
		<g>
			<rect x="91.2" y="-212.2" class="st1" width="9.3" height="2.3"/>
			<rect x="107.7" y="-212.2" class="st1" width="9.3" height="2.3"/>
			<rect x="124.2" y="-212.2" class="st2" width="9.3" height="2.3"/>
			<rect x="140.7" y="-212.2" class="st2" width="9.3" height="2.3"/>
			<rect x="157.2" y="-212.2" class="st2" width="9.3" height="2.3"/>
			<rect x="173.7" y="-212.2" class="st1" width="9.3" height="2.3"/>
			<rect x="190.2" y="-212.2" class="st1" width="9.3" height="2.3"/>
			<rect x="140" y="-198.2" class="st1" width="9.3" height="2.3"/>
			<rect x="156.5" y="-198.2" class="st1" width="9.3" height="2.3"/>
			<rect x="173" y="-198.2" class="st1" width="9.3" height="2.3"/>
			<rect x="189.5" y="-198.2" class="st1" width="9.3" height="2.3"/>
			<rect x="206" y="-198.2" class="st1" width="9.3" height="2.3"/>
			<rect x="222.5" y="-198.2" class="st1" width="9.3" height="2.3"/>
			<rect x="140" y="-184" class="st1" width="9.3" height="2.3"/>
			<rect x="156.5" y="-184" class="st3" width="9.3" height="2.3"/>
			<rect x="173" y="-184" class="st3" width="9.3" height="2.3"/>
			<rect x="189.5" y="-184" class="st1" width="9.3" height="2.3"/>
			<rect x="206" y="-184" class="st2" width="9.3" height="2.3"/>
			<rect x="222.5" y="-184" class="st3" width="9.3" height="2.3"/>
			<rect x="140" y="-175" class="st1" width="9.3" height="2.3"/>
			<rect x="156.5" y="-175" class="st1" width="9.3" height="2.3"/>
			<rect x="173" y="-175" class="st1" width="9.3" height="2.3"/>
			<rect x="189.5" y="-175" class="st3" width="9.3" height="2.3"/>
			<rect x="206" y="-175" class="st3" width="9.3" height="2.3"/>
			<rect x="222.5" y="-175" class="st3" width="9.3" height="2.3"/>
		</g>
		<g>
			<rect x="1.2" y="-239.7" class="st2" width="9.3" height="2.3"/>
			<rect x="17.8" y="-239.7" class="st1" width="9.3" height="2.3"/>
			<rect x="34.2" y="-239.7" class="st1" width="9.3" height="2.3"/>
			<rect x="0.5" y="-225.7" class="st1" width="9.3" height="2.3"/>
			<rect x="17" y="-225.7" class="st1" width="9.3" height="2.3"/>
			<rect x="33.5" y="-225.7" class="st1" width="9.3" height="2.3"/>
			<rect x="50" y="-225.7" class="st1" width="9.3" height="2.3"/>
			<rect x="66.5" y="-225.7" class="st1" width="9.3" height="2.3"/>
			<rect x="0.5" y="-211.5" class="st3" width="9.3" height="2.3"/>
			<rect x="17" y="-211.5" class="st3" width="9.3" height="2.3"/>
			<rect x="33.5" y="-211.5" class="st1" width="9.3" height="2.3"/>
			<rect x="50" y="-211.5" class="st2" width="9.3" height="2.3"/>
			<rect x="66.5" y="-211.5" class="st3" width="9.3" height="2.3"/>
			<rect x="0.5" y="-202.5" class="st1" width="9.3" height="2.3"/>
			<rect x="17" y="-202.5" class="st1" width="9.3" height="2.3"/>
			<rect x="33.5" y="-202.5" class="st3" width="9.3" height="2.3"/>
			<rect x="50" y="-202.5" class="st3" width="9.3" height="2.3"/>
			<rect x="66.5" y="-202.5" class="st3" width="9.3" height="2.3"/>
		</g>
		<g>
			<rect x="296" y="-266.5" class="st1" width="9.3" height="2.3"/>
			<rect x="312.5" y="-266.5" class="st3" width="9.3" height="2.3"/>
			<rect x="296" y="-257.5" class="st1" width="9.3" height="2.3"/>
			<rect x="312.5" y="-257.5" class="st1" width="9.3" height="2.3"/>
		</g>
		<g>
			<rect x="91.2" y="-267.2" class="st1" width="9.3" height="2.3"/>
			<rect x="107.7" y="-267.2" class="st1" width="9.3" height="2.3"/>
			<rect x="124.2" y="-267.2" class="st2" width="9.3" height="2.3"/>
			<rect x="140.7" y="-267.2" class="st2" width="9.3" height="2.3"/>
			<rect x="157.2" y="-267.2" class="st2" width="9.3" height="2.3"/>
			<rect x="173.7" y="-267.2" class="st1" width="9.3" height="2.3"/>
			<rect x="190.2" y="-267.2" class="st1" width="9.3" height="2.3"/>
			<rect x="140" y="-253.2" class="st1" width="9.3" height="2.3"/>
			<rect x="156.5" y="-253.2" class="st1" width="9.3" height="2.3"/>
			<rect x="173" y="-253.2" class="st1" width="9.3" height="2.3"/>
			<rect x="189.5" y="-253.2" class="st1" width="9.3" height="2.3"/>
			<rect x="206" y="-253.2" class="st1" width="9.3" height="2.3"/>
			<rect x="222.5" y="-253.2" class="st1" width="9.3" height="2.3"/>
			<rect x="140" y="-239" class="st1" width="9.3" height="2.3"/>
			<rect x="156.5" y="-239" class="st3" width="9.3" height="2.3"/>
			<rect x="173" y="-239" class="st3" width="9.3" height="2.3"/>
			<rect x="189.5" y="-239" class="st1" width="9.3" height="2.3"/>
			<rect x="206" y="-239" class="st2" width="9.3" height="2.3"/>
			<rect x="222.5" y="-239" class="st3" width="9.3" height="2.3"/>
			<rect x="140" y="-230" class="st1" width="9.3" height="2.3"/>
			<rect x="156.5" y="-230" class="st1" width="9.3" height="2.3"/>
			<rect x="173" y="-230" class="st1" width="9.3" height="2.3"/>
			<rect x="189.5" y="-230" class="st3" width="9.3" height="2.3"/>
			<rect x="206" y="-230" class="st3" width="9.3" height="2.3"/>
			<rect x="222.5" y="-230" class="st3" width="9.3" height="2.3"/>
		</g>
		<g>
			<rect x="0.5" y="-266.5" class="st3" width="9.3" height="2.3"/>
			<rect x="17" y="-266.5" class="st3" width="9.3" height="2.3"/>
			<rect x="33.5" y="-266.5" class="st1" width="9.3" height="2.3"/>
			<rect x="50" y="-266.5" class="st2" width="9.3" height="2.3"/>
			<rect x="66.5" y="-266.5" class="st3" width="9.3" height="2.3"/>
			<rect x="0.5" y="-257.5" class="st1" width="9.3" height="2.3"/>
			<rect x="17" y="-257.5" class="st1" width="9.3" height="2.3"/>
			<rect x="33.5" y="-257.5" class="st3" width="9.3" height="2.3"/>
			<rect x="50" y="-257.5" class="st3" width="9.3" height="2.3"/>
			<rect x="66.5" y="-257.5" class="st3" width="9.3" height="2.3"/>
		</g>
	</g>
</pattern>
<pattern  id="SVGID_1_" xlink:href="#New_Pattern" patternTransform="matrix(1 0 0 1 -108 -128)">
</pattern>
<rect x="-143" y="-135" class="st4" width="852" height="1600"/>
</svg>
